<svg xmlns="http://www.w3.org/2000/svg" version="1.1" width="795px" height="746px" style="shape-rendering:geometricPrecision; text-rendering:geometricPrecision; image-rendering:optimizeQuality; fill-rule:evenodd; clip-rule:evenodd" xmlns:xlink="http://www.w3.org/1999/xlink">
<g><path style="opacity:1" fill="#f3f3f4" d="M -0.5,-0.5 C 264.5,-0.5 529.5,-0.5 794.5,-0.5C 794.5,248.167 794.5,496.833 794.5,745.5C 529.5,745.5 264.5,745.5 -0.5,745.5C -0.5,496.833 -0.5,248.167 -0.5,-0.5 Z"/></g>
<g><path style="opacity:1" fill="#e8cff8" d="M 269.5,35.5 C 251.615,39.6033 234.949,46.7699 219.5,57C 161.779,95.9317 113.279,144.098 74,201.5C 64.3609,216.406 57.0276,232.406 52,249.5C 50.9324,264.497 53.599,278.831 60,292.5C 65.7377,302.974 71.7377,313.307 78,323.5C 90.7174,340.98 103.884,357.98 117.5,374.5C 115.535,377.476 113.535,380.476 111.5,383.5C 114.152,385.592 114.986,388.258 114,391.5C 101.295,409.245 90.9619,428.245 83,448.5C 81,458.5 81,468.5 83,478.5C 93.5547,505.382 107.888,530.049 126,552.5C 159.33,593.752 197.497,629.919 240.5,661C 254.871,670.897 270.204,678.897 286.5,685C 290.926,685.791 295.259,685.457 299.5,684C 325.758,667.566 349.758,648.4 371.5,626.5C 374.607,623.708 377.94,621.374 381.5,619.5C 387.811,623.814 393.478,628.814 398.5,634.5C 399.527,636.194 400.861,637.527 402.5,638.5C 393.106,643.047 384.439,648.88 376.5,656C 368.629,661.372 360.629,666.539 352.5,671.5C 340.775,678.02 328.442,683.187 315.5,687C 307.833,687.333 300.167,687.667 292.5,688C 285.5,691 278.5,694 271.5,697C 258.5,699 245.5,699 232.5,697C 203.228,683.417 176.561,665.751 152.5,644C 122.865,617.47 96.3653,588.303 73,556.5C 66.981,546.454 60.981,536.454 55,526.5C 49.7391,515.96 46.5724,504.794 45.5,493C 46.6387,479.596 50.472,467.096 57,455.5C 72.2822,429.429 90.1155,405.262 110.5,383C 90.2271,361.378 71.7271,338.211 55,313.5C 45.2578,298.684 38.2578,282.684 34,265.5C 32.8044,250.809 35.4711,236.809 42,223.5C 52.4924,203.183 64.9924,184.183 79.5,166.5C 111.257,127.77 147.257,93.6034 187.5,64C 199.403,55.8844 211.736,48.5511 224.5,42C 237.442,35.6817 251.109,33.015 265.5,34C 267.058,34.21 268.391,34.71 269.5,35.5 Z"/></g>
<g><path style="opacity:1" fill="#e8cff8" d="M 413.5,647.5 C 423.785,654.65 434.118,661.817 444.5,669C 451.271,672.219 457.937,675.719 464.5,679.5C 471.306,681.852 477.973,684.352 484.5,687C 491.118,688.378 497.785,688.711 504.5,688C 525.498,682.665 544.831,673.832 562.5,661.5C 619.321,621.179 666.821,571.845 705,513.5C 712.331,501.558 717.665,488.892 721,475.5C 721.667,468.167 721.667,460.833 721,453.5C 718.255,444.262 714.921,435.262 711,426.5C 701.009,409.855 690.509,393.521 679.5,377.5C 679.756,376.311 680.089,375.144 680.5,374C 677.249,368.414 673.249,363.414 668.5,359C 686.415,337.424 701.915,314.257 715,289.5C 722.384,274.135 724.051,258.135 720,241.5C 716.829,232.157 712.829,223.157 708,214.5C 675.443,162.772 635.276,117.772 587.5,79.5C 570.418,66.2474 552.418,54.4141 533.5,44C 526.817,41.0748 519.984,38.5748 513,36.5C 503.502,39.1647 494.336,42.6647 485.5,47C 474.318,53.7551 463.318,60.7551 452.5,68C 434.465,82.022 416.799,96.522 399.5,111.5C 396.006,108.176 392.339,105.009 388.5,102C 384.846,100.999 381.846,101.999 379.5,105C 378.5,105.667 377.5,105.667 376.5,105C 346.824,75.8451 313.158,52.6784 275.5,35.5C 290.478,37.2387 304.478,41.7387 317.5,49C 329.157,56.4965 340.824,63.9965 352.5,71.5C 363.883,80.5628 375.217,89.5628 386.5,98.5C 408.854,79.145 432.854,61.9783 458.5,47C 469.436,41.7995 480.77,37.7995 492.5,35C 503.508,35.4587 514.508,35.2921 525.5,34.5C 536.151,35.5792 546.484,38.0792 556.5,42C 589.89,59.8544 620.223,81.8544 647.5,108C 678.053,136.536 704.887,168.036 728,202.5C 736.744,217.078 743.744,232.411 749,248.5C 750.75,262.082 748.75,275.082 743,287.5C 736.132,302.233 727.965,316.233 718.5,329.5C 707.286,345.025 695.286,359.859 682.5,374C 698.957,392.045 714.124,411.211 728,431.5C 739.307,447.78 747.64,465.447 753,484.5C 754.39,496.606 752.723,508.273 748,519.5C 736.555,543.04 722.555,565.04 706,585.5C 673.65,624.852 636.816,659.352 595.5,689C 577.104,701.797 557.104,711.131 535.5,717C 528.326,717.91 521.326,717.243 514.5,715C 505.122,712.1 496.122,708.434 487.5,704C 460.316,688.297 435.65,669.464 413.5,647.5 Z"/></g>
<g><path style="opacity:1" fill="#e2b5f6" d="M 269.5,35.5 C 271.5,35.5 273.5,35.5 275.5,35.5C 313.158,52.6784 346.824,75.8451 376.5,105C 377.5,105.667 378.5,105.667 379.5,105C 381.846,101.999 384.846,100.999 388.5,102C 392.339,105.009 396.006,108.176 399.5,111.5C 416.799,96.522 434.465,82.022 452.5,68C 463.318,60.7551 474.318,53.7551 485.5,47C 494.336,42.6647 503.502,39.1647 513,36.5C 519.984,38.5748 526.817,41.0748 533.5,44C 552.418,54.4141 570.418,66.2474 587.5,79.5C 635.276,117.772 675.443,162.772 708,214.5C 712.829,223.157 716.829,232.157 720,241.5C 724.051,258.135 722.384,274.135 715,289.5C 701.915,314.257 686.415,337.424 668.5,359C 673.249,363.414 677.249,368.414 680.5,374C 680.089,375.144 679.756,376.311 679.5,377.5C 690.509,393.521 701.009,409.855 711,426.5C 714.921,435.262 718.255,444.262 721,453.5C 721.667,460.833 721.667,468.167 721,475.5C 717.665,488.892 712.331,501.558 705,513.5C 666.821,571.845 619.321,621.179 562.5,661.5C 544.831,673.832 525.498,682.665 504.5,688C 497.785,688.711 491.118,688.378 484.5,687C 477.973,684.352 471.306,681.852 464.5,679.5C 457.937,675.719 451.271,672.219 444.5,669C 434.118,661.817 423.785,654.65 413.5,647.5C 411.952,647.179 411.285,646.179 411.5,644.5C 410.448,644.649 409.448,644.483 408.5,644C 406.699,641.936 404.699,640.102 402.5,638.5C 400.861,637.527 399.527,636.194 398.5,634.5C 399.583,634.539 400.583,634.873 401.5,635.5C 409.023,631.649 415.357,626.315 420.5,619.5C 432.132,610.202 442.799,599.869 452.5,588.5C 452.281,587.062 451.781,585.729 451,584.5C 443.252,576.918 436.418,568.585 430.5,559.5C 434.606,556.077 436.106,551.744 435,546.5C 429.909,538.56 425.576,530.227 422,521.5C 420.981,520.313 419.814,519.313 418.5,518.5C 414.89,520.444 411.557,522.777 408.5,525.5C 392.807,500.978 380.64,474.645 372,446.5C 370.756,442.221 370.423,437.888 371,433.5C 375.766,427.895 381.266,423.228 387.5,419.5C 396.877,427.22 406.21,434.886 415.5,442.5C 412.715,442.933 410.381,444.266 408.5,446.5C 406.87,449.298 405.037,451.965 403,454.5C 400.647,466.33 401.814,477.83 406.5,489C 410.224,498.527 414.558,507.693 419.5,516.5C 433.116,507.256 436.949,494.923 431,479.5C 428.085,469.472 424.418,459.805 420,450.5C 419.506,448.866 419.34,447.199 419.5,445.5C 428.636,451.391 437.636,457.558 446.5,464C 448.83,465.523 451.164,466.023 453.5,465.5C 450.248,458.661 446.748,451.995 443,445.5C 442.333,444.5 442.333,443.5 443,442.5C 460.286,456.435 479.119,467.935 499.5,477C 509.427,481.008 518.761,480.008 527.5,474C 528.763,465.535 528.597,457.035 527,448.5C 524.227,443.52 522.227,438.187 521,432.5C 515.421,423.013 510.088,413.346 505,403.5C 500.887,398.707 497.554,393.373 495,387.5C 494.329,386.748 493.496,386.414 492.5,386.5C 491.22,385.069 489.553,384.402 487.5,384.5C 478.013,378.512 470.346,370.679 464.5,361C 465.289,359.374 466.289,357.874 467.5,356.5C 464.518,352.028 461.185,347.861 457.5,344C 471.783,326.105 483.783,306.772 493.5,286C 494.233,284.234 494.567,282.401 494.5,280.5C 487.24,282.88 480.407,286.213 474,290.5C 475.986,281.85 477.986,273.184 480,264.5C 480.609,257.811 480.443,251.144 479.5,244.5C 478.127,244.343 476.793,244.51 475.5,245C 454.164,254.594 433.997,266.427 415,280.5C 407.942,265.741 402.275,250.408 398,234.5C 397.249,229.428 397.582,224.428 399,219.5C 412.066,204.478 427.066,191.811 444,181.5C 442.528,177.366 440.361,173.366 437.5,169.5C 440.688,167.068 443.688,164.401 446.5,161.5C 432.572,143.571 416.906,127.237 399.5,112.5C 397.144,114.69 394.644,116.69 392,118.5C 387.96,114.296 383.46,110.629 378.5,107.5C 368.513,115.488 359.179,124.155 350.5,133.5C 346.221,139.282 341.388,144.615 336,149.5C 335.833,150.5 335.667,151.5 335.5,152.5C 339.229,157.567 342.562,162.901 345.5,168.5C 344.295,171.57 342.795,174.57 341,177.5C 340.299,180.928 340.632,184.262 342,187.5C 352.278,204.021 361.612,221.021 370,238.5C 370.297,233.309 370.797,228.143 371.5,223C 372.435,220.684 373.602,218.518 375,216.5C 387.611,238.318 397.111,261.484 403.5,286C 403.167,287.5 402.833,289 402.5,290.5C 397.649,288.242 393.316,285.242 389.5,281.5C 388.5,280.833 387.5,280.167 386.5,279.5C 372.083,268.252 356.75,258.419 340.5,250C 330.631,245.447 320.298,242.281 309.5,240.5C 307.9,240.551 306.4,240.884 305,241.5C 302.172,251.412 301.839,261.412 304,271.5C 309.253,287.946 316.42,303.446 325.5,318C 324.092,318.315 322.759,317.982 321.5,317C 313.492,311.655 305.492,306.322 297.5,301C 295.221,300.527 293.221,299.527 291.5,298C 290.056,297.219 288.723,297.386 287.5,298.5C 294.61,312.278 302.944,325.278 312.5,337.5C 314.333,337.833 316.167,338.167 318,338.5C 337.385,334.081 338.385,336.415 321,345.5C 321.292,348.521 322.625,351.188 325,353.5C 325.49,354.793 325.657,356.127 325.5,357.5C 323.801,357.34 322.134,357.506 320.5,358C 312.131,362.902 303.465,367.236 294.5,371C 292.415,372.041 290.748,373.541 289.5,375.5C 294.5,380.167 299.5,384.833 304.5,389.5C 304.833,390.5 305.167,391.5 305.5,392.5C 297.205,405.535 289.372,418.868 282,432.5C 278.157,442.759 275.657,453.259 274.5,464C 274.976,468.16 275.309,472.327 275.5,476.5C 279.827,475.449 284.16,474.282 288.5,473C 297.203,468.542 305.703,463.708 314,458.5C 312.08,462.862 311.08,467.528 311,472.5C 321.17,467.328 331.004,461.494 340.5,455C 342.45,453.504 344.45,453.337 346.5,454.5C 358.524,475.249 367.19,497.249 372.5,520.5C 372.107,523.633 371.274,526.633 370,529.5C 368,532.167 366,534.833 364,537.5C 355.58,545.59 346.58,552.924 337,559.5C 336.369,562.584 337.202,565.25 339.5,567.5C 338.167,569.167 336.833,570.833 335.5,572.5C 342.419,580.101 349.253,587.768 356,595.5C 364.108,604.098 372.608,612.098 381.5,619.5C 377.94,621.374 374.607,623.708 371.5,626.5C 349.758,648.4 325.758,667.566 299.5,684C 295.259,685.457 290.926,685.791 286.5,685C 270.204,678.897 254.871,670.897 240.5,661C 197.497,629.919 159.33,593.752 126,552.5C 107.888,530.049 93.5547,505.382 83,478.5C 81,468.5 81,458.5 83,448.5C 90.9619,428.245 101.295,409.245 114,391.5C 114.986,388.258 114.152,385.592 111.5,383.5C 113.535,380.476 115.535,377.476 117.5,374.5C 103.884,357.98 90.7174,340.98 78,323.5C 71.7377,313.307 65.7377,302.974 60,292.5C 53.599,278.831 50.9324,264.497 52,249.5C 57.0276,232.406 64.3609,216.406 74,201.5C 113.279,144.098 161.779,95.9317 219.5,57C 234.949,46.7699 251.615,39.6033 269.5,35.5 Z"/></g>
<g><path style="opacity:1" fill="#e9d0f8" d="M 626.5,320.5 C 623.455,317.453 620.122,314.787 616.5,312.5C 597.526,298.002 577.193,285.502 555.5,275C 544.8,270.912 533.8,269.245 522.5,270C 514.769,271.426 507.436,273.759 500.5,277C 498.741,277.798 497.074,277.631 495.5,276.5C 499.565,266.495 500.398,256.162 498,245.5C 496.68,242.099 494.18,240.765 490.5,241.5C 487.768,241.913 485.101,242.58 482.5,243.5C 480.626,243.61 479.126,242.944 478,241.5C 475.772,235.205 473.605,228.872 471.5,222.5C 468.305,219.106 466.139,215.106 465,210.5C 461.602,205.762 458.602,200.762 456,195.5C 453.385,191.217 450.385,187.217 447,183.5C 446.202,181.741 446.369,180.074 447.5,178.5C 450.284,177.214 452.617,175.381 454.5,173C 453.436,169.615 451.602,166.782 449,164.5C 448.316,163.216 448.483,162.049 449.5,161C 466.619,151.515 484.286,143.182 502.5,136C 508.752,134.041 515.086,132.375 521.5,131C 527.93,130.23 534.263,130.73 540.5,132.5C 545.594,131.977 550.594,130.977 555.5,129.5C 561.143,130.213 566.143,132.38 570.5,136C 588.335,154.167 603.502,174.334 616,196.5C 628.306,218.491 639.306,241.157 649,264.5C 651.541,271.832 653.375,279.332 654.5,287C 654.497,291.01 653.664,294.844 652,298.5C 646.295,305.37 640.129,311.703 633.5,317.5C 631.502,319.334 629.168,320.334 626.5,320.5 Z"/></g>
<g><path style="opacity:1" fill="#f3f3f4" d="M 533.5,134.5 C 538.545,133.666 542.878,134.999 546.5,138.5C 552.667,145.5 558.833,152.5 565,159.5C 587.086,191.596 605.753,225.596 621,261.5C 624.032,270.461 626.198,279.627 627.5,289C 626.338,296.818 622.671,303.152 616.5,308C 615.101,308.595 613.768,308.428 612.5,307.5C 591.489,289 569.156,272.166 545.5,257C 530.234,247.375 513.567,241.708 495.5,240C 487.595,219.442 476.762,200.608 463,183.5C 462.517,182.552 462.351,181.552 462.5,180.5C 461.5,180.5 460.5,180.5 459.5,180.5C 456.133,175.497 457.133,171.664 462.5,169C 485.366,155.667 509.033,144.167 533.5,134.5 Z"/></g>
<g><path style="opacity:1" fill="#de9df3" d="M 487.5,384.5 C 482.902,384.273 478.568,385.106 474.5,387C 461.334,388.196 451.667,382.863 445.5,371C 448.306,366.684 452.306,364.018 457.5,363C 458.685,361.647 460.019,360.48 461.5,359.5C 456.734,354.877 454.567,349.21 455,342.5C 452.457,339.299 449.957,336.133 447.5,333C 447.796,331.112 448.296,329.278 449,327.5C 456.734,317.191 463.567,306.358 469.5,295C 465.853,296.664 462.187,298.664 458.5,301C 451,306.341 443.667,311.841 436.5,317.5C 434.617,317.124 433.117,316.124 432,314.5C 426.636,303.57 420.802,292.904 414.5,282.5C 410.46,285.194 406.793,288.361 403.5,292C 400.745,293.953 397.745,295.12 394.5,295.5C 391.683,291.393 390.016,286.726 389.5,281.5C 393.316,285.242 397.649,288.242 402.5,290.5C 402.833,289 403.167,287.5 403.5,286C 397.111,261.484 387.611,238.318 375,216.5C 373.602,218.518 372.435,220.684 371.5,223C 370.797,228.143 370.297,233.309 370,238.5C 361.612,221.021 352.278,204.021 342,187.5C 340.632,184.262 340.299,180.928 341,177.5C 342.795,174.57 344.295,171.57 345.5,168.5C 342.562,162.901 339.229,157.567 335.5,152.5C 335.667,151.5 335.833,150.5 336,149.5C 341.388,144.615 346.221,139.282 350.5,133.5C 359.179,124.155 368.513,115.488 378.5,107.5C 383.46,110.629 387.96,114.296 392,118.5C 394.644,116.69 397.144,114.69 399.5,112.5C 416.906,127.237 432.572,143.571 446.5,161.5C 443.688,164.401 440.688,167.068 437.5,169.5C 440.361,173.366 442.528,177.366 444,181.5C 427.066,191.811 412.066,204.478 399,219.5C 397.582,224.428 397.249,229.428 398,234.5C 402.275,250.408 407.942,265.741 415,280.5C 433.997,266.427 454.164,254.594 475.5,245C 476.793,244.51 478.127,244.343 479.5,244.5C 480.443,251.144 480.609,257.811 480,264.5C 477.986,273.184 475.986,281.85 474,290.5C 480.407,286.213 487.24,282.88 494.5,280.5C 494.567,282.401 494.233,284.234 493.5,286C 483.783,306.772 471.783,326.105 457.5,344C 461.185,347.861 464.518,352.028 467.5,356.5C 466.289,357.874 465.289,359.374 464.5,361C 470.346,370.679 478.013,378.512 487.5,384.5 Z"/></g>
<g><path style="opacity:1" fill="#d98af3" d="M 390.5,121.5 C 392.308,121.491 393.975,121.991 395.5,123C 402.997,131.496 410.83,139.663 419,147.5C 424.782,154.232 429.948,161.399 434.5,169C 421.852,177.64 409.185,186.307 396.5,195C 389.024,201.07 381.857,207.57 375,214.5C 366.014,199.353 357.181,184.186 348.5,169C 351.738,163.342 355.571,158.175 360,153.5C 370.117,142.556 380.283,131.889 390.5,121.5 Z"/></g>
<g><path style="opacity:1" fill="#e9d0f8" d="M 173.5,324.5 C 173.167,324.5 172.833,324.5 172.5,324.5C 170.983,324.489 169.816,323.823 169,322.5C 154.042,296.978 141.375,270.312 131,242.5C 125.867,229.494 128.2,218.161 138,208.5C 156.218,192.631 175.718,178.464 196.5,166C 218.667,153.144 241.667,142.144 265.5,133C 272.023,130.899 278.69,129.732 285.5,129.5C 294.098,130.758 302.764,131.591 311.5,132C 313.5,133 315.5,134 317.5,135C 322.285,138.818 326.785,142.985 331,147.5C 332.373,149.695 332.706,152.029 332,154.5C 329.757,157.074 327.924,159.908 326.5,163C 328.638,166.797 331.138,170.297 334,173.5C 338.007,180.131 337.007,185.797 331,190.5C 320.618,205.602 312.118,221.602 305.5,238.5C 303.887,239.427 302.221,240.261 300.5,241C 293.842,242.329 287.175,243.663 280.5,245C 279.271,246.529 277.771,247.696 276,248.5C 273.895,263.546 276.561,277.546 284,290.5C 284.781,291.944 284.614,293.277 283.5,294.5C 273.137,289.491 262.137,287.158 250.5,287.5C 244.06,287.648 237.726,288.482 231.5,290C 224.012,293.088 216.679,296.422 209.5,300C 199.302,307.935 188.302,314.601 176.5,320C 174.859,321.129 173.859,322.629 173.5,324.5 Z"/></g>
<g><path style="opacity:1" fill="#f3f3f4" d="M 291.5,132.5 C 297.16,131.831 301.827,133.664 305.5,138C 313.243,145.223 319.577,153.389 324.5,162.5C 318.164,171.33 311.664,179.996 305,188.5C 293.239,205.849 283.905,224.515 277,244.5C 272.606,249.621 267.106,253.121 260.5,255C 232.479,272.178 206.479,292.011 182.5,314.5C 177.234,307.635 172.734,300.302 169,292.5C 161.433,276.928 154.766,260.928 149,244.5C 146.556,235.278 147.056,226.278 150.5,217.5C 155.483,211.739 160.816,206.239 166.5,201C 204.875,172.021 246.542,149.188 291.5,132.5 Z"/></g>
<g><path style="opacity:1" fill="#de9df3" d="M 616.5,312.5 C 620.122,314.787 623.455,317.453 626.5,320.5C 627.694,321.272 628.694,322.272 629.5,323.5C 625.144,324.511 621.144,326.344 617.5,329C 604.045,339.213 589.712,348.046 574.5,355.5C 570.81,358.199 567.143,360.865 563.5,363.5C 572.001,368.489 579.501,374.822 586,382.5C 594.807,393.43 603.14,404.763 611,416.5C 629.279,400.221 646.613,382.887 663,364.5C 663.667,362.833 663.667,361.167 663,359.5C 661.639,357.972 660.472,356.305 659.5,354.5C 651.646,346.391 643.979,338.058 636.5,329.5C 645.443,337.271 654.276,345.271 663,353.5C 665.754,357.079 667.754,361.079 669,365.5C 672.079,369.324 674.912,373.324 677.5,377.5C 675.862,380.304 674.029,382.971 672,385.5C 656.236,401.466 639.736,416.632 622.5,431C 621.365,431.749 620.365,431.583 619.5,430.5C 616.472,426.639 613.639,422.639 611,418.5C 608.103,419.819 605.603,421.653 603.5,424C 602.5,424.667 601.5,424.667 600.5,424C 586.669,399.333 571.336,375.666 554.5,353C 565.999,345.083 577.666,337.417 589.5,330C 596.833,324.333 604.167,318.667 611.5,313C 613.134,312.506 614.801,312.34 616.5,312.5 Z"/></g>
<g><path style="opacity:1" fill="#de9df3" d="M 192.5,410.5 C 201.559,401.47 211.559,393.636 222.5,387C 209.34,377.84 198.174,366.674 189,353.5C 183.751,346.004 178.751,338.337 174,330.5C 172.556,328.845 170.722,328.178 168.5,328.5C 169.833,327.167 171.167,325.833 172.5,324.5C 172.833,324.5 173.167,324.5 173.5,324.5C 175.769,322.932 178.102,321.432 180.5,320C 181.833,319.333 183.167,319.333 184.5,320C 194.828,337.656 206.328,354.49 219,370.5C 222.655,373.989 226.155,377.655 229.5,381.5C 229.081,382.672 228.415,383.672 227.5,384.5C 230.833,385.167 234.167,385.833 237.5,386.5C 235.717,388.232 233.717,389.732 231.5,391C 218.23,397.058 205.23,403.558 192.5,410.5 Z"/></g>
<g><path style="opacity:1" fill="#d98af3" d="M 629.5,323.5 C 631.56,325.767 633.893,327.767 636.5,329.5C 643.979,338.058 651.646,346.391 659.5,354.5C 660.472,356.305 661.639,357.972 663,359.5C 663.667,361.167 663.667,362.833 663,364.5C 646.613,382.887 629.279,400.221 611,416.5C 603.14,404.763 594.807,393.43 586,382.5C 579.501,374.822 572.001,368.489 563.5,363.5C 567.143,360.865 570.81,358.199 574.5,355.5C 589.712,348.046 604.045,339.213 617.5,329C 621.144,326.344 625.144,324.511 629.5,323.5 Z"/></g>
<g><path style="opacity:1" fill="#d98af3" d="M 168.5,328.5 C 170.722,328.178 172.556,328.845 174,330.5C 178.751,338.337 183.751,346.004 189,353.5C 198.174,366.674 209.34,377.84 222.5,387C 211.559,393.636 201.559,401.47 192.5,410.5C 185.638,415.758 178.638,420.758 171.5,425.5C 155.553,412.054 140.386,397.721 126,382.5C 125.362,381.391 124.862,380.225 124.5,379C 126.927,374.57 129.761,370.403 133,366.5C 140.441,358.902 147.274,350.902 153.5,342.5C 158.173,337.494 163.173,332.828 168.5,328.5 Z"/></g>
<g><path style="opacity:1" fill="#e8cff8" d="M 522.5,335.5 C 534.286,335.476 543.786,340.143 551,349.5C 551.667,350.833 551.667,352.167 551,353.5C 549.5,354.333 548.333,355.5 547.5,357C 533.439,363.367 519.439,369.7 505.5,376C 500.421,380.854 494.421,382.354 487.5,380.5C 481.666,372.836 475.666,365.336 469.5,358C 472.777,354.259 476.777,351.593 481.5,350C 495.312,344.983 508.979,340.15 522.5,335.5 Z"/></g>
<g><path style="opacity:1" fill="#e8cef8" d="M 313.5,340.5 C 315.193,341.475 316.693,342.808 318,344.5C 318.684,345.784 318.517,346.951 317.5,348C 297.103,359.532 276.103,370.032 254.5,379.5C 254.833,379.833 255.167,380.167 255.5,380.5C 265.005,376.193 275.005,374.36 285.5,375C 272.121,383.844 257.455,387.678 241.5,386.5C 242.5,385.667 243.5,384.833 244.5,384C 240.179,383.501 235.846,383.334 231.5,383.5C 231.281,382.325 231.614,381.325 232.5,380.5C 239.889,375.206 247.556,370.373 255.5,366C 268.076,361.045 280.076,355.045 291.5,348C 298.702,345.197 306.035,342.697 313.5,340.5 Z"/></g>
<g><path style="opacity:1" fill="#d88af2" d="M 386.5,279.5 C 387.5,280.167 388.5,280.833 389.5,281.5C 390.016,286.726 391.683,291.393 394.5,295.5C 397.745,295.12 400.745,293.953 403.5,292C 406.793,288.361 410.46,285.194 414.5,282.5C 420.802,292.904 426.636,303.57 432,314.5C 433.117,316.124 434.617,317.124 436.5,317.5C 443.667,311.841 451,306.341 458.5,301C 462.187,298.664 465.853,296.664 469.5,295C 463.567,306.358 456.734,317.191 449,327.5C 448.296,329.278 447.796,331.112 447.5,333C 449.957,336.133 452.457,339.299 455,342.5C 454.567,349.21 456.734,354.877 461.5,359.5C 460.019,360.48 458.685,361.647 457.5,363C 452.306,364.018 448.306,366.684 445.5,371C 451.667,382.863 461.334,388.196 474.5,387C 478.568,385.106 482.902,384.273 487.5,384.5C 489.553,384.402 491.22,385.069 492.5,386.5C 492.489,388.017 491.823,389.184 490.5,390C 472.363,399.901 454.696,410.568 437.5,422C 435.478,424.022 433.478,426.022 431.5,428C 433.029,429.582 433.529,431.415 433,433.5C 431.53,431.848 429.697,430.848 427.5,430.5C 424.05,432.774 420.717,435.274 417.5,438C 416.365,438.749 415.365,438.583 414.5,437.5C 409.911,428.913 405.411,420.247 401,411.5C 400.311,410.643 399.478,409.977 398.5,409.5C 394.656,411.922 390.99,414.589 387.5,417.5C 385.417,415.751 383.084,414.918 380.5,415C 374.134,420.109 369.967,426.609 368,434.5C 361.45,440.051 354.617,445.217 347.5,450C 346.5,450.667 345.5,450.667 344.5,450C 342.635,447.142 340.468,444.642 338,442.5C 331.765,446.369 325.598,450.369 319.5,454.5C 319.167,454.167 318.833,453.833 318.5,453.5C 323.099,445.421 327.432,437.254 331.5,429C 325.052,416.621 317.219,405.121 308,394.5C 307.333,393.167 307.333,391.833 308,390.5C 315.333,381.167 322.667,371.833 330,362.5C 330.129,359.696 329.796,357.03 329,354.5C 333.497,351.251 338.163,348.251 343,345.5C 343.667,344.167 343.667,342.833 343,341.5C 339.699,337.054 336.532,332.554 333.5,328C 335.631,328.398 337.631,329.398 339.5,331C 341.167,331.667 342.833,331.667 344.5,331C 359.763,321.388 372.93,309.554 384,295.5C 384.945,290.044 385.778,284.711 386.5,279.5 Z"/></g>
<g><path style="opacity:1" fill="#d67af0" d="M 347.5,342.5 C 346.527,344.068 346.36,345.735 347,347.5C 350.391,352.055 354.225,356.055 358.5,359.5C 360.927,363.821 362.761,368.488 364,373.5C 370.156,384.291 377.656,394.124 386.5,403C 388.154,403.608 389.821,404.108 391.5,404.5C 388.69,407.503 385.524,410.17 382,412.5C 379.448,409.122 376.615,408.789 373.5,411.5C 364.278,419.712 354.944,427.879 345.5,436C 341.972,439.296 338.805,439.129 336,435.5C 335.446,433.39 334.612,431.39 333.5,429.5C 334.054,427.39 334.888,425.39 336,423.5C 342.988,414.405 350.155,405.405 357.5,396.5C 358.641,394.579 358.808,392.579 358,390.5C 349.657,381.823 341.657,372.823 334,363.5C 333.333,361.833 333.333,360.167 334,358.5C 338.771,353.243 343.271,347.91 347.5,342.5 Z"/></g>
<g><path style="opacity:1" fill="#d57af0" d="M 443.5,332.5 C 444.376,332.369 445.043,332.702 445.5,333.5C 447.621,339.074 450.288,344.24 453.5,349C 449.934,352.726 446.601,356.559 443.5,360.5C 440.707,355.36 438.041,350.026 435.5,344.5C 436.496,344.586 437.329,344.252 438,343.5C 440.398,340.037 442.232,336.37 443.5,332.5 Z"/></g>
<g><path style="opacity:1" fill="#d36ef0" d="M 436.5,322.5 C 439.815,325.125 442.149,328.458 443.5,332.5C 442.232,336.37 440.398,340.037 438,343.5C 437.329,344.252 436.496,344.586 435.5,344.5C 432.214,338.369 428.547,332.369 424.5,326.5C 427.901,323.471 431.901,322.138 436.5,322.5 Z"/></g>
<g><path style="opacity:1" fill="#736ae8" d="M 406.5,317.5 C 413.645,318.215 419.645,321.215 424.5,326.5C 428.547,332.369 432.214,338.369 435.5,344.5C 438.041,350.026 440.707,355.36 443.5,360.5C 443.5,361.167 443.5,361.833 443.5,362.5C 443.769,366.931 443.436,371.265 442.5,375.5C 433.62,385.611 422.953,393.278 410.5,398.5C 405.957,400.718 401.29,402.718 396.5,404.5C 394.833,404.5 393.167,404.5 391.5,404.5C 389.821,404.108 388.154,403.608 386.5,403C 377.656,394.124 370.156,384.291 364,373.5C 362.761,368.488 360.927,363.821 358.5,359.5C 356.393,350.46 359.059,343.293 366.5,338C 375.645,330.434 385.645,324.434 396.5,320C 400.056,319.778 403.389,318.944 406.5,317.5 Z"/></g>
<g><path style="opacity:1" fill="#d364ee" d="M 414.5,338.5 C 421.06,349.468 423.893,361.468 423,374.5C 411.713,380.883 399.547,383.883 386.5,383.5C 384.366,378.683 382.7,373.683 381.5,368.5C 390.524,359.978 399.524,351.145 408.5,342C 410.24,340.306 412.24,339.139 414.5,338.5 Z"/></g>
<g><path style="opacity:1" fill="#d36df0" d="M 414.5,338.5 C 412.24,339.139 410.24,340.306 408.5,342C 399.524,351.145 390.524,359.978 381.5,368.5C 378.816,361.147 378.15,353.647 379.5,346C 389.658,341.626 400.325,338.792 411.5,337.5C 412.726,337.52 413.726,337.853 414.5,338.5 Z"/></g>
<g><path style="opacity:1" fill="#d36ef0" d="M 406.5,317.5 C 403.389,318.944 400.056,319.778 396.5,320C 385.645,324.434 375.645,330.434 366.5,338C 359.059,343.293 356.393,350.46 358.5,359.5C 354.225,356.055 350.391,352.055 347,347.5C 346.36,345.735 346.527,344.068 347.5,342.5C 365.362,332.156 381.695,319.656 396.5,305C 398.112,304.28 399.612,304.446 401,305.5C 403.11,309.422 404.943,313.422 406.5,317.5 Z"/></g>
<g><path style="opacity:1" fill="#d67af1" d="M 436.5,322.5 C 431.901,322.138 427.901,323.471 424.5,326.5C 419.645,321.215 413.645,318.215 406.5,317.5C 404.943,313.422 403.11,309.422 401,305.5C 399.612,304.446 398.112,304.28 396.5,305C 381.695,319.656 365.362,332.156 347.5,342.5C 346.24,339.404 344.074,337.071 341,335.5C 340.333,334.833 340.333,334.167 341,333.5C 344.639,336.57 348.805,337.737 353.5,337C 366.412,323.251 380.079,310.417 394.5,298.5C 395.611,299.611 396.945,300.278 398.5,300.5C 400.855,298.643 403.021,296.643 405,294.5C 415.725,303.733 426.225,313.066 436.5,322.5 Z"/></g>
<g><path style="opacity:1" fill="#de9df3" d="M 153.5,342.5 C 147.274,350.902 140.441,358.902 133,366.5C 129.761,370.403 126.927,374.57 124.5,379C 124.862,380.225 125.362,381.391 126,382.5C 140.386,397.721 155.553,412.054 171.5,425.5C 169.093,426.712 166.76,428.212 164.5,430C 162.965,430.496 161.465,430.33 160,429.5C 145.372,417.539 131.372,404.872 118,391.5C 117.333,389.5 117.333,387.5 118,385.5C 119.419,383.664 120.586,381.664 121.5,379.5C 120.248,377.265 119.748,374.931 120,372.5C 130.416,361.58 141.583,351.58 153.5,342.5 Z"/></g>
<g><path style="opacity:1" fill="#e8cbf8" d="M 545.5,365.5 C 548.247,365.187 550.914,365.52 553.5,366.5C 536.911,376.071 519.244,383.071 500.5,387.5C 500.167,387.167 499.833,386.833 499.5,386.5C 502.46,385.232 505.127,383.399 507.5,381C 514.838,377.378 522.504,374.211 530.5,371.5C 532.766,370.686 535.1,370.186 537.5,370C 540.062,368.207 542.728,366.707 545.5,365.5 Z"/></g>
<g><path style="opacity:1" fill="#b07dee" d="M 443.5,362.5 C 444.163,364.473 444.496,366.639 444.5,369C 444.467,371.61 443.8,373.777 442.5,375.5C 443.436,371.265 443.769,366.931 443.5,362.5 Z"/></g>
<g><path style="opacity:1" fill="#e9d0f8" d="M 259.5,481.5 C 247.629,480.866 236.296,478.032 225.5,473C 210.513,465.176 196.179,456.342 182.5,446.5C 181.109,445.355 179.776,445.355 178.5,446.5C 185.686,467.898 194.519,488.564 205,508.5C 218.14,531.301 232.473,553.301 248,574.5C 252.64,578.895 257.14,583.395 261.5,588C 267.609,592.278 274.276,593.445 281.5,591.5C 263.973,602.04 244.973,609.04 224.5,612.5C 217.658,611.413 211.992,608.246 207.5,603C 178.36,568.544 155.527,530.378 139,488.5C 136.477,481.062 134.643,473.396 133.5,465.5C 134.204,458.758 137.038,453.091 142,448.5C 148.182,442.654 154.682,437.154 161.5,432C 166.07,433.981 170.07,436.981 173.5,441C 174.448,441.483 175.448,441.649 176.5,441.5C 176.335,438.15 176.502,434.817 177,431.5C 193.715,444.776 211.215,456.943 229.5,468C 239.448,472.811 249.448,477.311 259.5,481.5 Z"/></g>
<g><path style="opacity:1" fill="#e9d0f8" d="M 462.5,591.5 C 464.826,592.151 467.159,592.818 469.5,593.5C 493.022,587.477 515.522,578.81 537,567.5C 562.838,553.408 587.338,537.408 610.5,519.5C 616.931,514.232 622.098,507.899 626,500.5C 626.667,495.833 626.667,491.167 626,486.5C 622.026,470.917 616.193,456.25 608.5,442.5C 592.781,453.691 576.448,463.857 559.5,473C 548.648,478.001 537.315,481.168 525.5,482.5C 525.5,482.167 525.5,481.833 525.5,481.5C 526.557,479.059 527.89,476.725 529.5,474.5C 553.918,461.634 576.585,446.301 597.5,428.5C 598.768,427.572 600.101,427.405 601.5,428C 604.006,432.551 606.839,436.718 610,440.5C 612.795,437.864 615.961,435.864 619.5,434.5C 623.132,438.402 626.298,442.736 629,447.5C 638.483,465.271 646.817,483.604 654,502.5C 657.118,511.263 658.118,520.263 657,529.5C 649.729,540.273 640.895,549.606 630.5,557.5C 595.658,582.485 558.324,602.652 518.5,618C 512.34,619.299 506.173,620.466 500,621.5C 496.254,621.675 492.754,620.842 489.5,619C 484.721,615.522 480.221,611.689 476,607.5C 471.711,601.879 467.211,596.546 462.5,591.5 Z"/></g>
<g><path style="opacity:1" fill="#de9df3" d="M 386.5,279.5 C 385.778,284.711 384.945,290.044 384,295.5C 372.93,309.554 359.763,321.388 344.5,331C 342.833,331.667 341.167,331.667 339.5,331C 337.631,329.398 335.631,328.398 333.5,328C 336.532,332.554 339.699,337.054 343,341.5C 343.667,342.833 343.667,344.167 343,345.5C 338.163,348.251 333.497,351.251 329,354.5C 329.796,357.03 330.129,359.696 330,362.5C 322.667,371.833 315.333,381.167 308,390.5C 307.333,391.833 307.333,393.167 308,394.5C 317.219,405.121 325.052,416.621 331.5,429C 327.432,437.254 323.099,445.421 318.5,453.5C 318.833,453.833 319.167,454.167 319.5,454.5C 325.598,450.369 331.765,446.369 338,442.5C 340.468,444.642 342.635,447.142 344.5,450C 345.5,450.667 346.5,450.667 347.5,450C 354.617,445.217 361.45,440.051 368,434.5C 369.967,426.609 374.134,420.109 380.5,415C 383.084,414.918 385.417,415.751 387.5,417.5C 390.99,414.589 394.656,411.922 398.5,409.5C 399.478,409.977 400.311,410.643 401,411.5C 405.411,420.247 409.911,428.913 414.5,437.5C 415.365,438.583 416.365,438.749 417.5,438C 420.717,435.274 424.05,432.774 427.5,430.5C 429.697,430.848 431.53,431.848 433,433.5C 433.529,431.415 433.029,429.582 431.5,428C 433.478,426.022 435.478,424.022 437.5,422C 454.696,410.568 472.363,399.901 490.5,390C 491.823,389.184 492.489,388.017 492.5,386.5C 493.496,386.414 494.329,386.748 495,387.5C 497.554,393.373 500.887,398.707 505,403.5C 510.088,413.346 515.421,423.013 521,432.5C 522.227,438.187 524.227,443.52 527,448.5C 528.597,457.035 528.763,465.535 527.5,474C 518.761,480.008 509.427,481.008 499.5,477C 479.119,467.935 460.286,456.435 443,442.5C 442.333,443.5 442.333,444.5 443,445.5C 446.748,451.995 450.248,458.661 453.5,465.5C 451.164,466.023 448.83,465.523 446.5,464C 437.636,457.558 428.636,451.391 419.5,445.5C 418.167,444.5 416.833,443.5 415.5,442.5C 406.21,434.886 396.877,427.22 387.5,419.5C 381.266,423.228 375.766,427.895 371,433.5C 370.423,437.888 370.756,442.221 372,446.5C 380.64,474.645 392.807,500.978 408.5,525.5C 411.557,522.777 414.89,520.444 418.5,518.5C 419.814,519.313 420.981,520.313 422,521.5C 425.576,530.227 429.909,538.56 435,546.5C 436.106,551.744 434.606,556.077 430.5,559.5C 436.418,568.585 443.252,576.918 451,584.5C 451.781,585.729 452.281,587.062 452.5,588.5C 442.799,599.869 432.132,610.202 420.5,619.5C 415.357,626.315 409.023,631.649 401.5,635.5C 400.583,634.873 399.583,634.539 398.5,634.5C 393.478,628.814 387.811,623.814 381.5,619.5C 372.608,612.098 364.108,604.098 356,595.5C 349.253,587.768 342.419,580.101 335.5,572.5C 336.833,570.833 338.167,569.167 339.5,567.5C 337.202,565.25 336.369,562.584 337,559.5C 346.58,552.924 355.58,545.59 364,537.5C 366,534.833 368,532.167 370,529.5C 371.274,526.633 372.107,523.633 372.5,520.5C 367.19,497.249 358.524,475.249 346.5,454.5C 344.45,453.337 342.45,453.504 340.5,455C 331.004,461.494 321.17,467.328 311,472.5C 311.08,467.528 312.08,462.862 314,458.5C 305.703,463.708 297.203,468.542 288.5,473C 284.16,474.282 279.827,475.449 275.5,476.5C 275.309,472.327 274.976,468.16 274.5,464C 275.657,453.259 278.157,442.759 282,432.5C 289.372,418.868 297.205,405.535 305.5,392.5C 305.167,391.5 304.833,390.5 304.5,389.5C 299.5,384.833 294.5,380.167 289.5,375.5C 290.748,373.541 292.415,372.041 294.5,371C 303.465,367.236 312.131,362.902 320.5,358C 322.134,357.506 323.801,357.34 325.5,357.5C 325.657,356.127 325.49,354.793 325,353.5C 322.625,351.188 321.292,348.521 321,345.5C 338.385,336.415 337.385,334.081 318,338.5C 316.167,338.167 314.333,337.833 312.5,337.5C 302.944,325.278 294.61,312.278 287.5,298.5C 288.723,297.386 290.056,297.219 291.5,298C 293.221,299.527 295.221,300.527 297.5,301C 305.492,306.322 313.492,311.655 321.5,317C 322.759,317.982 324.092,318.315 325.5,318C 316.42,303.446 309.253,287.946 304,271.5C 301.839,261.412 302.172,251.412 305,241.5C 306.4,240.884 307.9,240.551 309.5,240.5C 320.298,242.281 330.631,245.447 340.5,250C 356.75,258.419 372.083,268.252 386.5,279.5 Z"/></g>
<g><path style="opacity:1" fill="#d67af0" d="M 410.5,398.5 C 417.116,408.131 423.783,417.797 430.5,427.5C 427.515,428.87 424.849,428.37 422.5,426C 414.467,417.776 405.801,410.609 396.5,404.5C 401.29,402.718 405.957,400.718 410.5,398.5 Z"/></g>
<g><path style="opacity:1" fill="#e8cff8" d="M 415.5,442.5 C 416.833,443.5 418.167,444.5 419.5,445.5C 419.34,447.199 419.506,448.866 420,450.5C 424.418,459.805 428.085,469.472 431,479.5C 436.949,494.923 433.116,507.256 419.5,516.5C 414.558,507.693 410.224,498.527 406.5,489C 401.814,477.83 400.647,466.33 403,454.5C 405.037,451.965 406.87,449.298 408.5,446.5C 410.381,444.266 412.715,442.933 415.5,442.5 Z"/></g>
<g><path style="opacity:1" fill="#f3f3f4" d="M 462.5,591.5 C 460.977,589.133 459.644,586.633 458.5,584C 468.244,571.246 478.411,558.746 489,546.5C 504.311,527.007 516.478,505.674 525.5,482.5C 537.315,481.168 548.648,478.001 559.5,473C 576.448,463.857 592.781,453.691 608.5,442.5C 616.193,456.25 622.026,470.917 626,486.5C 626.667,491.167 626.667,495.833 626,500.5C 622.098,507.899 616.931,514.232 610.5,519.5C 587.338,537.408 562.838,553.408 537,567.5C 515.522,578.81 493.022,587.477 469.5,593.5C 467.159,592.818 464.826,592.151 462.5,591.5 Z"/></g>
<g><path style="opacity:1" fill="#f3f3f4" d="M 259.5,481.5 C 265.907,482.463 272.407,483.463 279,484.5C 286.456,503.792 296.289,521.792 308.5,538.5C 315.167,547.167 321.833,555.833 328.5,564.5C 314.495,573.99 300.161,582.656 285.5,590.5C 284.432,591.434 283.099,591.768 281.5,591.5C 274.276,593.445 267.609,592.278 261.5,588C 257.14,583.395 252.64,578.895 248,574.5C 232.473,553.301 218.14,531.301 205,508.5C 194.519,488.564 185.686,467.898 178.5,446.5C 179.776,445.355 181.109,445.355 182.5,446.5C 196.179,456.342 210.513,465.176 225.5,473C 236.296,478.032 247.629,480.866 259.5,481.5 Z"/></g>
<g><path style="opacity:1" fill="#e8cff8" d="M 525.5,481.5 C 525.5,481.833 525.5,482.167 525.5,482.5C 516.478,505.674 504.311,527.007 489,546.5C 478.411,558.746 468.244,571.246 458.5,584C 459.644,586.633 460.977,589.133 462.5,591.5C 460.516,591.617 458.85,590.95 457.5,589.5C 456.788,586.352 456.121,583.186 455.5,580C 450.36,572.185 445.194,564.352 440,556.5C 438,552.5 438,548.5 440,544.5C 448.828,531.512 455.494,517.512 460,502.5C 461.058,491.405 459.558,480.738 455.5,470.5C 455.833,470.167 456.167,469.833 456.5,469.5C 466.106,473.637 475.773,477.471 485.5,481C 498.829,481.5 512.163,481.667 525.5,481.5 Z"/></g>
<g><path style="opacity:1" fill="#e8cff8" d="M 285.5,590.5 C 300.161,582.656 314.495,573.99 328.5,564.5C 321.833,555.833 315.167,547.167 308.5,538.5C 296.289,521.792 286.456,503.792 279,484.5C 272.407,483.463 265.907,482.463 259.5,481.5C 263.709,480.366 268.042,479.366 272.5,478.5C 275.924,479.076 278.757,480.743 281,483.5C 289.901,480.948 298.568,477.948 307,474.5C 307.5,474.833 308,475.167 308.5,475.5C 307.662,480.881 306.662,486.214 305.5,491.5C 306.127,498.261 307.293,504.927 309,511.5C 315.648,528.462 324.148,544.462 334.5,559.5C 333.064,561.514 331.73,563.514 330.5,565.5C 331.186,567.347 332.186,569.014 333.5,570.5C 333.167,571.167 332.833,571.833 332.5,572.5C 317.599,580.376 301.932,586.376 285.5,590.5 Z"/></g>
<g><path style="opacity:1" fill="#d98af3" d="M 405.5,527.5 C 407.981,527.323 409.814,528.323 411,530.5C 415.33,539.158 420.664,547.158 427,554.5C 427.808,556.423 428.308,558.423 428.5,560.5C 426.565,564.277 424.398,567.943 422,571.5C 410.186,586.311 397.686,600.478 384.5,614C 383.5,614.5 382.5,615 381.5,615.5C 368.79,603.456 357.124,590.456 346.5,576.5C 344.728,574.059 343.394,571.392 342.5,568.5C 363.77,556.528 384.437,543.528 404.5,529.5C 405.298,529.043 405.631,528.376 405.5,527.5 Z"/></g>
</svg>
